<svg xmlns="http://www.w3.org/2000/svg" viewBox="0 0 900 170" width="900" height="170">
  <defs>
    <linearGradient id="bg" x1="0" y1="0" x2="1" y2="1">
      <stop offset="0%" stop-color="#f7f6f4"/>
      <stop offset="50%" stop-color="#fafafa"/>
      <stop offset="100%" stop-color="#f6f7fa"/>
    </linearGradient>
    <linearGradient id="accent" x1="0" y1="0" x2="1" y2="0">
      <stop offset="0%" stop-color="#d4943c" stop-opacity="0"/>
      <stop offset="15%" stop-color="#d4943c" stop-opacity="0.35"/>
      <stop offset="50%" stop-color="#d4943c" stop-opacity="0.40"/>
      <stop offset="85%" stop-color="#d4943c" stop-opacity="0.35"/>
      <stop offset="100%" stop-color="#d4943c" stop-opacity="0"/>
    </linearGradient>
    <radialGradient id="glow">
      <stop offset="0%" stop-color="#000000" stop-opacity="0.06"/>
      <stop offset="100%" stop-color="#000000" stop-opacity="0"/>
    </radialGradient>
  </defs>

  <rect width="900" height="170" fill="url(#bg)"/>

  <circle cx="450" cy="40" r="50" fill="url(#glow)"/>
  <g transform="translate(450, 40) scale(1.0)" opacity="0.50">
    <line x1="0" y1="-24" x2="0" y2="24" stroke="#d4943c" stroke-width="0.7" opacity="0.60"/>
    <line x1="20.8" y1="-12" x2="-20.8" y2="12" stroke="#d4943c" stroke-width="0.7" opacity="0.60"/>
    <line x1="20.8" y1="12" x2="-20.8" y2="-12" stroke="#d4943c" stroke-width="0.7" opacity="0.60"/>
    <polygon points="0,-24 20.8,-12 20.8,12 0,24 -20.8,12 -20.8,-12" fill="none" stroke="#d4943c" stroke-width="1.2" stroke-linejoin="round"/>
    <circle cx="0" cy="-24" r="1.8" fill="#d4943c"/><circle cx="20.8" cy="-12" r="1.8" fill="#d4943c"/>
    <circle cx="20.8" cy="12" r="1.8" fill="#d4943c"/><circle cx="0" cy="24" r="1.8" fill="#d4943c"/>
    <circle cx="-20.8" cy="12" r="1.8" fill="#d4943c"/><circle cx="-20.8" cy="-12" r="1.8" fill="#d4943c"/>
  </g>

  <text x="450" y="102" text-anchor="middle" fill="#24292f" font-family="-apple-system, 'Segoe UI', Helvetica, Arial, sans-serif" font-size="30" font-weight="400" letter-spacing="-0.5">libgraphql</text>
  <rect x="310" y="111" width="280" height="1.5" fill="url(#accent)" rx="0.75"/>
  <text x="450" y="128" text-anchor="middle" fill="#57606a" font-family="-apple-system, 'Segoe UI', Helvetica, Arial, sans-serif" font-size="10" letter-spacing="0.3">Comprehensive GraphQL engine for Rust</text>
  <text x="450" y="158" text-anchor="middle" fill="#adb5bd" font-family="'SF Mono', 'Cascadia Code', monospace" font-size="7.5">v0.0.1</text>
</svg>
